 <svg style="position: absolute; width: 0; height: 0;" width="0" height="0" version="1.1" xmlns="http://www.w3.org/2000/svg" xmlns:xlink="http://www.w3.org/1999/xlink">
    <defs>
        <symbol id="icon-favorite_black" viewBox="0 0 1024 1024">
            <title>favorite_black</title>
            <path class="path1" d="M512 910.933l-61.867-56.32c-219.733-199.253-364.8-330.667-364.8-491.947 0-131.413 103.253-234.667 234.667-234.667 74.24 0 145.493 34.56 192 89.173 46.507-54.613 117.76-89.173 192-89.173 131.413 0 234.667 103.253 234.667 234.667 0 161.28-145.067 292.693-364.8 492.373l-61.867 55.893z"></path>
        </symbol>
        <symbol id="icon-thumb_up_black" viewBox="0 0 1024 1024">
            <title>thumb_up_black</title>
            <path class="path1" d="M42.667 896h170.667v-512h-170.667v512zM981.333 426.667c0-46.933-38.4-85.333-85.333-85.333h-269.227l40.533-194.987 1.28-13.653c0-17.493-7.253-33.707-18.773-45.227l-45.227-44.8-280.747 281.173c-15.787 15.36-25.173 36.693-25.173 60.16v426.667c0 46.933 38.4 85.333 85.333 85.333h384c35.413 0 65.707-21.333 78.507-52.053l128.853-300.8c3.84-9.813 5.973-20.053 5.973-31.147v-81.493l-0.427-0.427 0.427-3.413z"></path>
        </symbol>
        <symbol id="icon-smile" viewBox="0 0 1024 1024">
            <title>smile</title>
            <path class="path1" d="M512 0c-282.77 0-512 229.23-512 512s229.23 512 512 512 512-229.23 512-512-229.23-512-512-512zM704 256c35.346 0 64 28.654 64 64s-28.654 64-64 64-64-28.654-64-64 28.654-64 64-64zM320 256c35.346 0 64 28.654 64 64s-28.654 64-64 64-64-28.654-64-64 28.654-64 64-64zM512 832c-116.51 0-218.464-62.274-274.426-155.344l82.328-49.396c39.174 65.148 110.542 108.74 192.098 108.74s152.924-43.592 192.098-108.74l82.328 49.396c-55.962 93.070-157.916 155.344-274.426 155.344z"></path>
        </symbol>
    </defs>
</svg>