 <svg style="position: absolute; width: 0; height: 0;" width="0" height="0" version="1.1" xmlns="http://www.w3.org/2000/svg" xmlns:xlink="http://www.w3.org/1999/xlink">
    <defs>
        <symbol id="icon-ic_favorite_black_24px" viewBox="0 0 1024 1024">
            <title>ic_favorite_black_24px</title>
            <path class="path1" d="M512 910.933l-61.867-56.32c-219.733-199.253-364.8-330.667-364.8-491.947 0-131.413 103.253-234.667 234.667-234.667 74.24 0 145.493 34.56 192 89.173 46.507-54.613 117.76-89.173 192-89.173 131.413 0 234.667 103.253 234.667 234.667 0 161.28-145.067 292.693-364.8 492.373l-61.867 55.893z"></path>
        </symbol>
        <symbol id="icon-ic_thumb_up_black_24px" viewBox="0 0 1024 1024">
            <title>ic_thumb_up_black_24px</title>
            <path class="path1" d="M42.667 896h170.667v-512h-170.667v512zM981.333 426.667c0-46.933-38.4-85.333-85.333-85.333h-269.227l40.533-194.987 1.28-13.653c0-17.493-7.253-33.707-18.773-45.227l-45.227-44.8-280.747 281.173c-15.787 15.36-25.173 36.693-25.173 60.16v426.667c0 46.933 38.4 85.333 85.333 85.333h384c35.413 0 65.707-21.333 78.507-52.053l128.853-300.8c3.84-9.813 5.973-20.053 5.973-31.147v-81.493l-0.427-0.427 0.427-3.413z"></path>
        </symbol>
        <symbol id="icon-quill" viewBox="0 0 1024 1024">
            <title>quill</title>
            <path class="path1" d="M0 1024c128-384 463-1024 1024-1024-263 211-384 704-576 704s-192 0-192 0l-192 320h-64z"></path>
        </symbol>
        <symbol id="icon-profile" viewBox="0 0 1024 1024">
            <title>profile</title>
            <path class="path1" d="M864 0h-768c-52.8 0-96 43.2-96 96v832c0 52.8 43.2 96 96 96h768c52.8 0 96-43.2 96-96v-832c0-52.8-43.2-96-96-96zM832 896h-704v-768h704v768zM256 576h448v64h-448zM256 704h448v64h-448zM320 288c0-53.019 42.981-96 96-96s96 42.981 96 96c0 53.019-42.981 96-96 96s-96-42.981-96-96zM480 384h-128c-52.8 0-96 28.8-96 64v64h320v-64c0-35.2-43.2-64-96-64z"></path>
        </symbol>
        <symbol id="icon-location" viewBox="0 0 1024 1024">
            <title>location</title>
            <path class="path1" d="M512 0c-176.732 0-320 143.268-320 320 0 320 320 704 320 704s320-384 320-704c0-176.732-143.27-320-320-320zM512 516c-108.248 0-196-87.752-196-196s87.752-196 196-196 196 87.752 196 196-87.752 196-196 196zM388 320c0-68.483 55.517-124 124-124s124 55.517 124 124c0 68.483-55.517 124-124 124s-124-55.517-124-124z"></path>
        </symbol>

        <symbol id="icon-visibility_black" viewBox="0 0 1024 1024">
            <title>visibility_black</title>
            <path class="path1" d="M512 192c-213.333 0-395.52 132.693-469.333 320 73.813 187.307 256 320 469.333 320s395.52-132.693 469.333-320c-73.813-187.307-256-320-469.333-320zM512 725.333c-117.76 0-213.333-95.573-213.333-213.333s95.573-213.333 213.333-213.333 213.333 95.573 213.333 213.333-95.573 213.333-213.333 213.333zM512 384c-70.827 0-128 57.173-128 128s57.173 128 128 128 128-57.173 128-128-57.173-128-128-128z"></path>
        </symbol>
        <symbol id="icon-person_add_black" viewBox="0 0 1024 1024">
            <title>person_add_black</title>
            <path class="path1" d="M640 512c94.293 0 170.667-76.373 170.667-170.667s-76.373-170.667-170.667-170.667-170.667 76.373-170.667 170.667 76.373 170.667 170.667 170.667zM256 426.667v-128h-85.333v128h-128v85.333h128v128h85.333v-128h128v-85.333h-128zM640 597.333c-113.92 0-341.333 57.173-341.333 170.667v85.333h682.667v-85.333c0-113.493-227.413-170.667-341.333-170.667z"></path>
        </symbol>
    </defs>
</svg>